#Comment line ignore any data following # character 
#Hierarchical Translation and Rotation (.htr) file 
[Header]	
#Header keywords are followed by a single value 
FileType HTR		#Single word string
DataType HTRS		#Translation followed by rotation and scale data
FileVersion 1		#integer
NumSegments 25		#integer
NumFrames 4		#integer
DataFrameRate 30		#integer, data frame rate in this file
EulerRotationOrder ZYX
CalibrationUnits mm
RotationUnits Degrees
GlobalAxisofGravity Y
BoneLengthAxis Y
ScaleFactor 1.00
[SegmentNames&Hierarchy]
#CHILD	PARENT
BN_Tick_Root GLOBAL
BN_Torso BN_Tick_Root
BN_L_Leg_Front01 BN_Torso
BN_L_Leg_Rear01 BN_Torso
BN_MetalTop BN_Torso
BN_Neck BN_Torso
BN_R_Leg_Front01 BN_Torso
BN_R_Leg_Rear01 BN_Torso
BN_Sack BN_Torso
BN_L_Leg_Front02 BN_L_Leg_Front01
BN_L_Leg_Front03 BN_L_Leg_Front02
BN_L_Leg_Rear02 BN_L_Leg_Rear01
BN_L_Leg_Rear03 BN_L_Leg_Rear02
BN_Head BN_Neck
BN_Needle BN_Head
BN_R_Leg_Front02 BN_R_Leg_Front01
BN_R_Leg_Front03 BN_R_Leg_Front02
BN_R_Leg_Rear02 BN_R_Leg_Rear01
BN_R_Leg_Rear03 BN_R_Leg_Rear02
BN_SackDef01 BN_Sack
BN_SackDef02 BN_Sack
BN_SackDef03 BN_Sack
BN_SackDef04 BN_Sack
BN_SackDef05 BN_Sack
BN_SackDef06 BN_Sack
[BasePosition]
#SegmentName Tx, Ty, Tz, Rx, Ry, Rz, BoneLength
BN_Tick_Root 0.000000 0.000000 0.000000 -90.000000 0.000000 0.000000 10.000000 
BN_Torso 0.000000 0.000000 0.000000 0.000000 0.000000 0.000000 10.000000 
BN_L_Leg_Front01 0.000000 0.000000 0.000000 0.000000 0.000000 0.000000 10.000000 
BN_L_Leg_Rear01 0.000000 0.000000 0.000000 0.000000 0.000000 0.000000 10.000000 
BN_MetalTop 0.000000 0.000000 0.000000 0.000000 0.000000 0.000000 10.000000 
BN_Neck 0.000000 0.000000 0.000000 0.000000 0.000000 0.000000 10.000000 
BN_R_Leg_Front01 0.000000 0.000000 0.000000 0.000000 0.000000 0.000000 10.000000 
BN_R_Leg_Rear01 0.000000 0.000000 0.000000 0.000000 0.000000 0.000000 10.000000 
BN_Sack 0.000000 0.000000 0.000000 0.000000 0.000000 0.000000 10.000000 
BN_L_Leg_Front02 0.000000 0.000000 0.000000 0.000000 0.000000 0.000000 10.000000 
BN_L_Leg_Front03 0.000000 0.000000 0.000000 0.000000 0.000000 0.000000 10.000000 
BN_L_Leg_Rear02 0.000000 0.000000 0.000000 0.000000 0.000000 0.000000 10.000000 
BN_L_Leg_Rear03 0.000000 0.000000 0.000000 0.000000 0.000000 0.000000 10.000000 
BN_Head 0.000000 0.000000 0.000000 0.000000 0.000000 0.000000 10.000000 
BN_Needle 0.000000 0.000000 0.000000 0.000000 0.000000 0.000000 10.000000 
BN_R_Leg_Front02 0.000000 0.000000 0.000000 0.000000 0.000000 0.000000 10.000000 
BN_R_Leg_Front03 0.000000 0.000000 0.000000 0.000000 0.000000 0.000000 10.000000 
BN_R_Leg_Rear02 0.000000 0.000000 0.000000 0.000000 0.000000 0.000000 10.000000 
BN_R_Leg_Rear03 0.000000 0.000000 0.000000 0.000000 0.000000 0.000000 10.000000 
BN_SackDef01 0.000000 0.000000 0.000000 0.000000 0.000000 0.000000 10.000000 
BN_SackDef02 0.000000 0.000000 0.000000 0.000000 0.000000 0.000000 10.000000 
BN_SackDef03 0.000000 0.000000 0.000000 0.000000 0.000000 0.000000 10.000000 
BN_SackDef04 0.000000 0.000000 0.000000 0.000000 0.000000 0.000000 10.000000 
BN_SackDef05 0.000000 0.000000 0.000000 0.000000 0.000000 0.000000 10.000000 
BN_SackDef06 0.000000 0.000000 0.000000 0.000000 0.000000 0.000000 10.000000 
#Beginning of Data. Separated by tabs
#Fr	Tx	Ty	Tz	Rx	Ry	Rz	SF
[BN_Tick_Root]
65 0.000000 -0.000140 0.000000 0.000000 0.000000 -0.000020 0.000140
66 0.000000 -0.000143 0.000000 0.000000 0.000000 -0.000020 0.000143
67 0.000000 -0.000145 0.000000 0.000000 0.000000 -0.000020 0.000145
68 0.000000 -0.000147 0.000000 0.000000 0.000000 -0.000020 0.000147
[BN_Torso]
65 74.966980 105.974762 306.286713 22.988312 -0.434753 10.217855 332.659363
66 72.998741 104.657379 305.735199 22.666874 1.145913 9.371157 331.294434
67 71.888222 101.686691 303.633209 22.072769 4.080890 7.800505 328.178650
68 70.777840 98.715996 301.531128 21.752138 5.661169 6.951805 325.077515
[BN_L_Leg_Front01]
65 -68.477791 10.734189 -26.804373 45.090057 66.034691 -127.481750 74.316254
66 -68.477791 10.734189 -26.804373 48.335037 67.034325 -123.742363 74.316254
67 -68.477791 10.734189 -26.804373 53.917561 68.691093 -116.861946 74.316254
68 -68.477791 10.734189 -26.804373 56.828255 69.694290 -113.623985 74.316254
[BN_L_Leg_Rear01]
65 -72.133743 -73.994843 -18.268616 89.793396 45.519566 -128.703674 104.939293
66 -72.133743 -73.994843 -18.268616 90.698784 46.880020 -125.884651 104.939293
67 -72.133743 -73.994843 -18.268616 92.907310 49.164139 -120.692215 104.939293
68 -72.133743 -73.994843 -18.268616 94.391991 50.301891 -117.930702 104.939293
[BN_MetalTop]
65 0.000008 13.737477 26.403606 79.192291 -38.762600 -95.546066 29.763546
66 0.000008 13.737477 26.403606 81.391220 -38.216049 -96.001831 29.763546
67 0.000008 13.737477 26.403606 81.901871 -38.611183 -96.758026 29.763546
68 0.000008 13.737477 26.403606 82.534309 -39.341328 -97.629265 29.763546
[BN_Neck]
65 0.000014 95.233284 10.002091 -89.999672 -65.297531 89.999657 95.757088
66 0.000014 95.233284 10.002091 -89.999672 -65.297531 89.999657 95.757088
67 0.000014 95.233284 10.002091 -89.999672 -65.297531 89.999657 95.757088
68 0.000014 95.233284 10.002091 -89.999672 -65.297531 89.999657 95.757088
[BN_R_Leg_Front01]
65 68.477768 10.734107 -26.804314 -35.387241 61.724392 -64.350754 74.316193
66 68.477768 10.734107 -26.804314 -31.752197 61.565571 -59.275169 74.316193
67 68.477768 10.734107 -26.804314 -25.953320 60.946003 -50.171539 74.316193
68 68.477768 10.734107 -26.804314 -22.763884 60.455044 -44.728436 74.316193
[BN_R_Leg_Rear01]
65 72.133751 -73.994873 -18.268644 -69.377998 37.160675 -80.155922 104.939331
66 72.133751 -73.994873 -18.268644 -68.424187 37.279575 -77.198700 104.939331
67 72.133751 -73.994873 -18.268644 -66.461365 37.270321 -71.943375 104.939331
68 72.133751 -73.994873 -18.268644 -65.476418 37.090664 -69.074715 104.939331
[BN_Sack]
65 -0.000000 -78.024918 33.657791 93.880646 -9.299479 -100.287331 84.974907
66 -0.000000 -78.024918 33.657791 93.778267 -12.918796 -99.126137 84.974907
67 -0.000000 -78.024918 33.657791 93.664642 -14.570599 -98.602760 84.974907
68 -0.000000 -78.024918 33.657791 94.182129 -13.297098 -100.002701 84.974907
[BN_L_Leg_Front02]
65 142.805023 -0.000015 -0.000104 0.162443 0.382703 -101.301460 142.805023
66 142.805023 -0.000015 -0.000104 0.159963 0.378603 -101.103081 142.805023
67 142.805023 -0.000015 -0.000104 0.161806 0.377819 -100.544754 142.805023
68 142.805023 -0.000015 -0.000104 0.161233 0.378065 -100.718369 142.805023
[BN_L_Leg_Front03]
65 124.143021 -0.000045 0.000007 0.353607 -0.424607 110.012421 124.143021
66 124.143021 -0.000045 0.000007 0.354390 -0.423954 109.800964 124.143021
67 124.143021 -0.000045 0.000007 0.352572 -0.424959 109.201447 124.143021
68 124.143021 -0.000045 0.000007 0.351897 -0.425517 109.383438 124.143021
[BN_L_Leg_Rear02]
65 139.939041 0.000075 -0.000022 0.120461 -0.222322 85.053101 139.939041
66 139.939041 0.000075 -0.000022 0.115953 -0.215871 85.433434 139.939041
67 139.939041 0.000075 -0.000022 0.111488 -0.209390 85.813766 139.939041
68 139.939041 0.000075 -0.000022 0.117498 -0.231006 86.681190 139.939041
[BN_L_Leg_Rear03]
65 142.839615 0.000179 -0.000060 0.000238 -0.002335 -101.628441 142.839615
66 142.839615 0.000179 -0.000060 0.000248 -0.002334 -102.111725 142.839615
67 142.839615 0.000179 -0.000060 0.000257 -0.002333 -102.595016 142.839615
68 142.839615 0.000179 -0.000060 0.000280 -0.002330 -103.693581 142.839615
[BN_Head]
65 57.062447 -0.000030 0.000000 7.443924 19.744444 63.547672 57.062447
66 57.062447 -0.000030 0.000000 6.710192 18.438198 62.515610 57.062447
67 57.062447 -0.000030 0.000000 5.426968 15.955080 60.599823 57.062447
68 57.062447 -0.000030 0.000000 4.760400 14.532744 59.212803 57.062447
[BN_Needle]
65 43.342987 326.398193 -0.000112 0.000003 0.000030 87.896805 329.263397
66 43.342987 326.398193 -0.000112 0.000003 0.000030 87.896805 329.263397
67 43.342987 326.398193 -0.000113 0.000003 0.000030 87.896805 329.263397
68 43.342991 326.398193 -0.000113 0.000003 0.000030 87.896805 329.263397
[BN_R_Leg_Front02]
65 142.804947 -0.000060 0.000060 -0.154357 0.405404 103.366951 142.804947
66 142.804947 -0.000060 0.000060 -0.151911 0.412954 103.820091 142.804947
67 142.804947 -0.000060 0.000060 -0.148707 0.424112 105.014191 142.804947
68 142.804947 -0.000060 0.000060 -0.145271 0.435201 106.208420 142.804947
[BN_R_Leg_Front03]
65 124.143005 -0.000060 -0.000156 -0.353563 -0.413907 -112.205551 124.143005
66 124.143005 -0.000060 -0.000156 -0.351863 -0.415354 -112.675636 124.143005
67 124.143005 -0.000060 -0.000156 -0.351690 -0.410467 -113.890984 124.143005
68 124.143005 -0.000060 -0.000156 -0.351621 -0.405577 -115.106445 124.143005
[BN_R_Leg_Rear02]
65 139.939011 -0.000149 0.000015 -0.131405 -0.216014 -81.690918 139.939011
66 139.939011 -0.000149 0.000015 -0.125838 -0.213857 -82.668694 139.939011
67 139.939011 -0.000149 0.000015 -0.110944 -0.206125 -84.767097 139.939011
68 139.939011 -0.000149 0.000015 -0.107756 -0.214909 -86.642548 139.939011
[BN_R_Leg_Rear03]
65 142.839417 0.000075 0.000119 0.002343 -0.000148 97.254471 142.839417
66 142.839417 0.000075 0.000119 0.002341 -0.000175 98.533417 142.839417
67 142.839417 0.000075 0.000119 0.002336 -0.000230 101.266426 142.839417
68 142.839417 0.000075 0.000119 0.002331 -0.000279 103.651550 142.839417
[BN_SackDef01]
65 353.391418 -7.327712 60.935463 -128.408218 -44.374973 -11.740845 358.681335
66 357.206848 -7.459063 61.597771 -128.408218 -44.374973 -11.740845 362.555725
67 361.022308 -7.590414 62.260078 -128.408218 -44.374973 -11.740845 366.430084
68 366.255249 -7.770591 63.168480 -128.408218 -44.374973 -11.740845 371.743927
[BN_SackDef02]
65 167.046783 -106.796318 67.417809 32.077126 -27.375721 -88.781525 209.416428
66 167.980515 -108.272217 68.136330 32.077126 -27.375721 -88.781525 211.146606
67 168.914261 -109.748123 68.854851 32.077126 -27.375721 -88.781525 212.879471
68 170.331375 -111.988136 69.945305 32.077126 -27.375721 -88.781525 215.514420
[BN_SackDef03]
65 353.391357 -7.327635 -60.935482 18.144459 44.375008 -11.740894 358.681305
66 357.206757 -7.458986 -61.597847 18.144459 44.375008 -11.740894 362.555664
67 361.022186 -7.590338 -62.260212 18.144459 44.375008 -11.740894 366.430023
68 366.255127 -7.770553 -63.168644 18.144459 44.375008 -11.740894 371.743835
[BN_SackDef04]
65 167.046768 -106.796242 -67.417786 146.059982 27.375723 -88.781555 209.416382
66 167.980499 -108.272125 -68.136261 146.059982 27.375723 -88.781555 211.146515
67 168.914230 -109.748032 -68.854736 146.059982 27.375723 -88.781555 212.879364
68 170.331360 -111.988037 -69.945213 146.059982 27.375723 -88.781555 215.514328
[BN_SackDef05]
65 169.905228 111.308105 -93.882469 0.155741 51.314110 90.605110 223.765945
66 171.594315 113.460701 -94.875496 0.155741 51.314110 90.605110 226.537643
67 173.283447 115.613304 -95.868538 0.155741 51.314110 90.605110 229.312805
68 175.846909 118.880180 -97.375656 0.155741 51.314110 90.605110 233.530823
[BN_SackDef06]
65 169.905258 111.308212 93.882317 152.058487 -51.314072 90.605019 223.765961
66 171.594376 113.460785 94.875343 152.058487 -51.314072 90.605019 226.537659
67 173.283508 115.613388 95.868378 152.058487 -51.314072 90.605019 229.312820
68 175.846970 118.880287 97.375488 152.058487 -51.314072 90.605019 233.530869
